<svg xmlns="http://www.w3.org/2000/svg" xmlns:xlink="http://www.w3.org/1999/xlink" version="1.1" width="256" height="256" viewBox="0 0 256 256" xml:space="preserve">
<desc>Created with Fabric.js 1.7.22</desc>
<defs>
</defs>
<g transform="translate(128 128) scale(0.72 0.72)" style="">
	<g style="stroke: none; stroke-width: 0; stroke-dasharray: none; stroke-linecap: butt; stroke-linejoin: miter; stroke-miterlimit: 10; fill: none; fill-rule: nonzero; opacity: 1;" transform="translate(-175.05 -175.05000000000004) scale(3.89 3.89)" >
	<path d="M 86.351 40.731 h -4.794 v -2.408 c 0 -4.91 -3.994 -8.904 -8.903 -8.904 H 51.914 v -5.538 c 0 -2.067 -1.682 -3.749 -3.748 -3.749 h -6.332 c -2.067 0 -3.749 1.682 -3.749 3.749 v 5.538 H 17.347 c -4.91 0 -8.904 3.994 -8.904 8.904 v 2.408 H 3.65 c -2.013 0 -3.65 1.637 -3.65 3.65 v 10.524 c 0 2.013 1.637 3.649 3.65 3.649 h 4.793 v 2.409 c 0 4.909 3.994 8.903 8.904 8.903 h 14.458 c 3.072 0 6.036 -1.363 8.129 -3.741 c 1.282 -1.456 3.128 -2.291 5.065 -2.291 s 3.783 0.835 5.064 2.291 c 2.094 2.378 5.057 3.741 8.13 3.741 h 14.459 c 4.909 0 8.903 -3.994 8.903 -8.903 v -2.409 h 4.794 c 2.013 0 3.649 -1.637 3.649 -3.649 V 44.381 C 90 42.368 88.363 40.731 86.351 40.731 z M 40.085 23.881 c 0 -0.964 0.785 -1.749 1.749 -1.749 h 6.332 c 0.964 0 1.748 0.784 1.748 1.749 v 5.538 h -9.829 V 23.881 z M 3.65 56.555 c -0.91 0 -1.65 -0.74 -1.65 -1.649 V 44.381 c 0 -0.91 0.74 -1.65 1.65 -1.65 h 4.793 v 13.824 H 3.65 z M 79.557 60.964 c 0 3.807 -3.097 6.903 -6.903 6.903 H 58.194 c -2.499 0 -4.914 -1.116 -6.629 -3.063 c -1.661 -1.887 -4.055 -2.969 -6.565 -2.969 c -2.511 0 -4.904 1.082 -6.566 2.969 c -1.714 1.947 -4.13 3.063 -6.628 3.063 H 17.347 c -3.807 0 -6.904 -3.097 -6.904 -6.903 v -2.409 V 40.731 v -2.408 c 0 -3.807 3.097 -6.904 6.904 -6.904 h 20.738 h 13.829 h 20.739 c 3.807 0 6.903 3.097 6.903 6.904 v 2.408 v 17.824 V 60.964 z M 88 54.905 c 0 0.909 -0.74 1.649 -1.649 1.649 h -4.794 V 42.731 h 4.794 c 0.909 0 1.649 0.74 1.649 1.65 V 54.905 z" style="stroke: none; stroke-width: 1; stroke-dasharray: none; stroke-linecap: butt; stroke-linejoin: miter; stroke-miterlimit: 10; fill: rgb(0,0,0); fill-rule: nonzero; opacity: 1;" transform=" matrix(1 0 0 1 0 0) " stroke-linecap="round" />
	<path d="M 16.822 45.307 c -0.256 0 -0.512 -0.098 -0.707 -0.293 c -0.391 -0.391 -0.391 -1.023 0 -1.414 l 7.697 -7.697 c 0.391 -0.391 1.023 -0.391 1.414 0 s 0.391 1.023 0 1.414 l -7.697 7.697 C 17.334 45.209 17.078 45.307 16.822 45.307 z" style="stroke: none; stroke-width: 1; stroke-dasharray: none; stroke-linecap: butt; stroke-linejoin: miter; stroke-miterlimit: 10; fill: rgb(0,0,0); fill-rule: nonzero; opacity: 1;" transform=" matrix(1 0 0 1 0 0) " stroke-linecap="round" />
	<path d="M 29.291 41.458 c -0.256 0 -0.512 -0.098 -0.707 -0.293 c -0.391 -0.391 -0.391 -1.023 0 -1.414 l 3.624 -3.624 c 0.391 -0.391 1.023 -0.391 1.414 0 s 0.391 1.023 0 1.414 l -3.624 3.624 C 29.803 41.36 29.547 41.458 29.291 41.458 z" style="stroke: none; stroke-width: 1; stroke-dasharray: none; stroke-linecap: butt; stroke-linejoin: miter; stroke-miterlimit: 10; fill: rgb(0,0,0); fill-rule: nonzero; opacity: 1;" transform=" matrix(1 0 0 1 0 0) " stroke-linecap="round" />
	<path d="M 17.047 53.702 c -0.256 0 -0.512 -0.098 -0.707 -0.293 c -0.391 -0.391 -0.391 -1.023 0 -1.414 l 8.875 -8.875 c 0.391 -0.391 1.023 -0.391 1.414 0 s 0.391 1.023 0 1.414 l -8.875 8.875 C 17.559 53.604 17.303 53.702 17.047 53.702 z" style="stroke: none; stroke-width: 1; stroke-dasharray: none; stroke-linecap: butt; stroke-linejoin: miter; stroke-miterlimit: 10; fill: rgb(0,0,0); fill-rule: nonzero; opacity: 1;" transform=" matrix(1 0 0 1 0 0) " stroke-linecap="round" />
</g>
</g>
</svg>